<svg width="70" height="36" viewBox="0 0 70 36" fill="none" xmlns="http://www.w3.org/2000/svg">
<path d="M22.581 10.7563C22.581 15.2225 18.9439 18.8596 14.4774 18.8596C10.0111 18.8596 6.37411 15.2228 6.37411 10.7563C6.37411 6.29136 10.0107 2.65489 14.4774 2.65489C18.9444 2.65489 22.581 6.29141 22.581 10.7563Z" stroke="#754DE8" stroke-width="4"/>
<path d="M14.4778 27.8083L13.0342 26.3031L8.40724 21.4784C6.65715 22.6461 5.14214 24.3158 4.01497 26.3812L14.4778 27.8083ZM14.4778 27.8083L15.9212 26.3031M14.4778 27.8083L15.9212 26.3031M15.9212 26.3031L20.5479 21.4785M15.9212 26.3031L20.5479 21.4785M20.5479 21.4785C22.2981 22.6461 23.8133 24.316 24.9406 26.3814C26.077 28.4637 26.7579 30.8507 26.9186 33.3449H2.037C2.19769 30.8508 2.87854 28.4639 4.01491 26.3813L20.5479 21.4785Z" stroke="#754DE8" stroke-width="4"/>
<path d="M63.6256 10.7563C63.6256 15.2225 59.9885 18.8596 55.5219 18.8596C51.0555 18.8596 47.4187 15.2228 47.4187 10.7563C47.4187 6.29136 51.0553 2.65489 55.5219 2.65489C59.989 2.65489 63.6256 6.29141 63.6256 10.7563Z" stroke="#754DE8" stroke-width="4"/>
<path d="M55.5222 27.8083L54.0787 26.3032L49.4515 21.4785C47.7015 22.6461 46.1865 24.3159 45.0594 26.3812L55.5222 27.8083ZM55.5222 27.8083L56.9656 26.3031M55.5222 27.8083L56.9656 26.3031M56.9656 26.3031L61.5923 21.4784M56.9656 26.3031L61.5923 21.4784M61.5923 21.4784C63.3425 22.6461 64.8576 24.3159 65.9848 26.3813C67.1213 28.4639 67.8023 30.8508 67.963 33.3449H43.0814C43.2421 30.8508 43.9229 28.4639 45.0593 26.3813L61.5923 21.4784Z" stroke="#754DE8" stroke-width="4"/>
<path d="M37.2965 9.54652L37.2965 9.54657C37.2965 9.54655 37.2965 9.54654 37.2965 9.54652ZM37.2965 9.54652C37.2964 9.5465 37.2964 9.54648 37.2964 9.54646L37.2965 9.54652ZM37.0372 16.4347L37.2965 16.694L37.0372 16.4347Z" stroke="#754DE8" stroke-width="4"/>
<mask id="path-6-inside-1_1_139" fill="white">
<path d="M30.848 24.0673H42.0191C42.675 24.0673 43.2067 23.5356 43.2067 22.8797C43.2067 22.2238 42.675 21.6921 42.0191 21.6921H30.848L32.9689 19.5714C33.4327 19.1075 33.4327 18.3556 32.9689 17.8918C32.5052 17.4283 31.7531 17.4283 31.2894 17.8918L27.1413 22.0399C26.6775 22.5037 26.6775 23.2556 27.1413 23.7193L31.2894 27.8676C31.5213 28.0995 31.8252 28.2156 32.1292 28.2156C32.4331 28.2156 32.7371 28.0995 32.969 27.8678C33.4329 27.4039 33.4329 26.652 32.969 26.1883L30.848 24.0673Z"/>
</mask>
<path d="M30.848 24.0673V20.0673H21.1911L28.0195 26.8957L30.848 24.0673ZM30.848 21.6921L28.0197 18.8635L21.1906 25.6921H30.848V21.6921ZM32.9689 19.5714L35.7972 22.3999L35.7973 22.3998L32.9689 19.5714ZM32.9689 17.8918L35.7973 15.0633L35.7968 15.0628L32.9689 17.8918ZM31.2894 17.8918L28.4615 15.0628L28.461 15.0633L31.2894 17.8918ZM27.1413 22.0399L24.3129 19.2115H24.3129L27.1413 22.0399ZM27.1413 23.7193L29.9698 20.891L29.9692 20.8904L27.1413 23.7193ZM31.2894 27.8676L28.4609 30.696L28.461 30.696L31.2894 27.8676ZM32.969 27.8678L35.7964 30.6972L35.7975 30.6962L32.969 27.8678ZM32.969 26.1883L30.1406 29.0168L30.1411 29.0173L32.969 26.1883ZM30.848 28.0673H42.0191V20.0673H30.848V28.0673ZM42.0191 28.0673C44.8841 28.0673 47.2067 25.7447 47.2067 22.8797H39.2067C39.2067 21.3264 40.4658 20.0673 42.0191 20.0673V28.0673ZM47.2067 22.8797C47.2067 20.0147 44.8841 17.6921 42.0191 17.6921V25.6921C40.4658 25.6921 39.2067 24.4329 39.2067 22.8797H47.2067ZM42.0191 17.6921H30.848V25.6921H42.0191V17.6921ZM33.6763 24.5206L35.7972 22.3999L30.1405 16.7428L28.0197 18.8635L33.6763 24.5206ZM35.7973 22.3998C37.8232 20.3739 37.8232 17.0893 35.7973 15.0633L30.1404 20.7202C29.0422 19.6219 29.0422 17.8412 30.1404 16.7429L35.7973 22.3998ZM35.7968 15.0628C33.7711 13.0379 30.4872 13.0379 28.4615 15.0628L34.1173 20.7207C33.019 21.8186 31.2393 21.8186 30.141 20.7207L35.7968 15.0628ZM28.461 15.0633L24.3129 19.2115L29.9697 24.8683L34.1178 20.7202L28.461 15.0633ZM24.3129 19.2115C22.2872 21.2371 22.2865 24.5221 24.3134 26.5483L29.9692 20.8904C31.0684 21.9892 31.0677 23.7703 29.9697 24.8683L24.3129 19.2115ZM24.3128 26.5477L28.4609 30.696L34.1179 25.0392L29.9698 20.891L24.3128 26.5477ZM28.461 30.696C29.4725 31.7075 30.8067 32.2156 32.1292 32.2156V24.2156C32.8437 24.2156 33.5702 24.4916 34.1178 25.0392L28.461 30.696ZM32.1292 32.2156C33.4511 32.2156 34.785 31.7079 35.7964 30.6972L30.1416 25.0383C30.6892 24.4912 31.415 24.2156 32.1292 24.2156V32.2156ZM35.7975 30.6962C37.8231 28.6706 37.8239 25.3856 35.7969 23.3594L30.1411 29.0173C29.0419 27.9185 29.0426 26.1373 30.1406 25.0394L35.7975 30.6962ZM35.7975 23.3599L33.6764 21.2389L28.0195 26.8957L30.1406 29.0168L35.7975 23.3599Z" fill="#754DE8" mask="url(#path-6-inside-1_1_139)"/>
</svg>
